<svg width="40" height="40" viewBox="0 0 40 40" xmlns="http://www.w3.org/2000/svg">
    <path d="M26.7305 8c-2.729 0-5.1171 1.5141-6.3594 3.746l-.0117.0235-.1485.3047c-.3987-.044-.8007-.0703-1.2109-.0703-.852-.002-1.6747.1032-2.4688.2852l1.7813 1.7812c.23-.018.4476-.0703.6836-.0703 4.96 0 8.996 4.038 8.996 9 0 .234-.0503.4536-.0663.6836l1.7812 1.7812c.182-.794.289-1.6149.289-2.4609 0-.4238-.0311-.8424-.078-1.2539l.2148-.0508.125-.0664C32.4888 20.392 34 18.0041 34 15.2734 34 11.269 30.7332 8 26.7305 8zM9.457 8.043L8.043 9.457l4.6093 4.6094C9.8505 16.0596 8 19.306 8 23c0 6.064 4.932 11 10.996 11 3.6939 0 6.9416-1.8531 8.9337-4.6563l4.6133 4.6133 1.414-1.414-4.9726-4.9727-1.5508-1.5508L21.414 20l-2-2-3.4414-3.4414-1.547-1.5469L9.457 8.043zM26.7305 10C29.6517 10 32 12.3499 32 15.2734c0 1.8965-1.018 3.5125-2.5078 4.4414-1.0752-3.4272-3.7837-6.1404-7.211-7.2148.9323-1.4904 2.556-2.5 4.4493-2.5zm-12.625 5.5195l12.371 12.3711C24.8773 30.3501 22.143 32 18.9962 32 14.034 32 10 27.962 10 23c0-3.148 1.6494-5.8793 4.1055-7.4805z" fill="#D15C22"/>
</svg>
