<svg width="28" height="28" viewBox="0 0 40 40" fill="none" xmlns="http://www.w3.org/2000/svg">
    <g transform="translate(3, 0)">
        <path d="M17 0L6.56 6.13l3.84 2.26L17 4.53l6.6 3.86 3.84-2.26L17 0zM23.6 11.59l3.84 2.26v4.53l-6.6 3.86v7.73L17 32.23l-3.84-2.26v-7.73l-6.6-3.86v-4.53l3.84-2.26 6.6 3.86 6.6-3.86z" fill="#F0B90B"/>
        <path d="M27.44 21.58v4.53l-3.84 2.26v-4.53l3.84-2.26z" fill="#F0B90B"/>
        <path d="M23.56 31.57l6.6-3.86v-7.73L34 17.72v12.25L23.56 36.1v-4.53zM30.16 12.25L26.33 10l3.83-2.26L34 9.99v4.53l-3.84 2.26v-4.53zM13.16 37.74V33.2L17 35.47l3.84-2.26v4.53L17 40l-3.84-2.26zM10.4 28.37l-3.84-2.26v-4.53l3.84 2.26v4.53zM17 12.25L13.16 10 17 7.73l3.84 2.26L17 12.25zM7.67 9.99l-3.83 2.26v4.53L0 14.52V9.99l3.84-2.26 3.83 2.26z" fill="#F0B90B"/>
        <path d="M0 17.72l3.84 2.26v7.73l6.6 3.86v4.53L0 29.97V17.72z" fill="#F0B90B"/>
    </g>
</svg>
