<svg width="40" height="40" viewBox="0 0 40 40" fill="#D15C22" xmlns="http://www.w3.org/2000/svg">
    <path d="M12 8c-1.65 0-3 1.35-3 3v6.2a7.98 7.98 0 1011.71 8.88h4.4a5.02 5.02 0 004.9 6 4.99 4.99 0 003-8.97v-4.03c-.01-1.64-1.36-3-3.01-3h-3v-2c0-1.11.89-2 2-2v-2c-2.2 0-4 1.8-4 4v2h-3.33l-2.54-6.21A3 3 0 0016.36 8H12zm0 2h4.36a1 1 0 01.92.63l2.8 6.83a1 1 0 00.92.62h9c.56 0 1 .44 1 1v3.1a4.97 4.97 0 00-4.97 1.9H21c0-4.4-3.6-8-8-8-.7 0-1.36.12-2 .29V11c0-.56.44-1 1-1zm1 8.08c3.33 0 6 2.68 6 6 0 3.33-2.67 6-6 6s-6-2.67-6-6c0-3.32 2.67-6 6-6zm0 4a2 2 0 100 4 2 2 0 000-4zm17 2c1.67 0 3 1.33 3 3s-1.33 3-3 3-3-1.33-3-3 1.33-3 3-3z"/>
</svg>
