<svg xmlns="http://www.w3.org/2000/svg" width="28" height="28" fill="#fff" viewBox="0 0 32 32">
    <path fill="#AB56FF" d="M12.608.826a6.173 6.173 0 0 1 6.17 0L27.3 5.743a6.164 6.164 0 0 1 3.085 5.34v9.835a6.164 6.164 0 0 1-3.085 5.338l-8.523 4.918a6.173 6.173 0 0 1-6.17 0l-8.523-4.918A6.164 6.164 0 0 1 1 20.918v-9.835a6.164 6.164 0 0 1 3.085-5.34L12.608.826Z"/>
    <path d="M11.118 7.664c-.906-.007-1.77.39-2.537 1.184C7.564 9.91 6.734 11.66 6.233 13.8c-.455 2-.564 4.062-.267 5.64.407 2.266 1.253 3.516 2.443 3.594.799.062 2.832-1.857 4.04-1.997 1.13-.132 1.795 1.115 3.21 1.152 1.415.038 2.081-1.288 3.21-1.152 1.193.143 3.21 2.012 3.946 2.012h.11c1.19-.078 2.036-1.328 2.443-3.593.282-1.594.188-3.64-.267-5.64-.5-2.14-1.33-3.906-2.364-4.968-.877-.906-1.879-1.297-2.928-1.156-.548.078-1.237.453-1.957.859-.768.437-1.645.922-2.193.922s-1.425-.485-2.192-.922c-.72-.406-1.41-.781-1.957-.86a3.158 3.158 0 0 0-.392-.027Z"/>
</svg>
