<svg width="40" height="40" viewBox="0 0 40 40" xmlns="http://www.w3.org/2000/svg">
    <path d="M27 8c-2.5234 0-4.6094 1.9063-4.9375 4.3438C19.7109 13.1563 18 15.375 18 18c0 3.3047 2.6953 6 6 6s6-2.6953 6-6c0-.2969-.0469-.5938-.0938-.875C31.25 16.25 32 14.7187 32 13c0-2.75-2.25-5-5-5zm0 2c1.664 0 3 1.336 3 3 0 .9688-.2578 1.6563-.7578 2.1406-1-1.8125-2.8828-3.0625-5.0625-3.125C24.578 10.8438 25.6797 10 27 10zm-3 4c2.2188 0 4 1.7813 4 4 0 2.2188-1.7813 4-4 4-2.2188 0-4-1.7813-4-4 0-2.2188 1.7813-4 4-4zm-10 8c-1.1016 0-2.2813.2969-2.2813.2969-.039.0078-.078.0156-.1093.0312l-4.9375 1.7266c-.5235.1797-.7969.7422-.625 1.2578l2 6c.0937.2656.2812.4766.5312.5938.25.1171.539.125.7969.0234l4.5781-1.836 6.3594 3.1329-.1172-.0625c1.461.9687 3.3281 1.1015 4.914.3515.047-.0234.0938-.0468.1329-.0781l8.3203-5.6094.8203-.5547-1.1094-1.664-.8359.5625-8.2031 5.539c-.9532.4375-2.0547.3672-2.9297-.2109-.039-.0234-.0703-.0469-.1172-.0625l-6.75-3.336c-.25-.125-.5469-.1328-.8125-.0312l-4.0156 1.6094-1.3438-4.0625 3.9375-1.3828C12.25 24.2266 13.3125 24 14 24c.9219 0 1.4219.0313 2.3828.7813 1.7188 1.3593 2.4844 2.164 3.6563 2.664C21.2109 27.9531 22.4844 28 25 28h1v-2h-1c-2.4844 0-3.461-.0781-4.164-.3906-.7032-.3047-1.4376-1-3.2188-2.3907C16.3282 22.2032 15.0782 22 14 22z" fill="#D15C22"/>
</svg>
