<svg width="40" height="40" viewBox="0 0 40 40" xmlns="http://www.w3.org/2000/svg">
    <path d="M19.93 6c-.22.02-.43.11-.6.26L16.9 8.45l-3.2-.69c-.5-.1-1 .19-1.16.67l-1 3.12-3.12 1a1 1 0 0 0-.67 1.16l.69 3.2-2.2 2.41a1 1 0 0 0 0 1.35l2.2 2.42-.69 3.2a1 1 0 0 0 .67 1.16l3.12 1 1 3.1a1 1 0 0 0 1.16.69l3.2-.69 2.41 2.2a1 1 0 0 0 1.35 0l2.42-2.2 3.2.69a1 1 0 0 0 1.16-.68l1-3.1 3.1-1a1 1 0 0 0 .69-1.17l-.69-3.2 2.2-2.42a1 1 0 0 0 0-1.35l-2.2-2.41.69-3.2a1 1 0 0 0-.68-1.16l-3.1-1-1-3.12a1 1 0 0 0-1.17-.67l-3.2.69-2.42-2.2a1 1 0 0 0-.63-.25h-.1zM20 8.35l2.13 1.93a1 1 0 0 0 .89.23l2.8-.6.89 2.74c.1.3.33.55.64.65l2.74.88-.6 2.81a1 1 0 0 0 .23.88L31.65 20l-1.93 2.13a1 1 0 0 0-.23.89l.6 2.8-2.74.89c-.3.1-.55.33-.64.64l-.89 2.74-2.8-.6a1 1 0 0 0-.89.23L20 31.65l-2.13-1.93a1 1 0 0 0-.88-.23l-2.81.6-.88-2.74a1 1 0 0 0-.65-.64l-2.73-.89.6-2.8a1 1 0 0 0-.24-.89L8.35 20l1.93-2.13c.22-.24.3-.57.23-.88l-.59-2.81 2.73-.88c.3-.1.55-.34.65-.65l.88-2.74 2.8.6a1 1 0 0 0 .89-.23L20 8.35zm5.3 6.9l-6.33 6.1L15.41 18l-1.38 1.46L19 24.12l7.7-7.43-1.4-1.43z" fill="#D15C22"/>
</svg>
