<svg width="40" height="40" viewBox="0 0 40 40" fill="#D15C22" xmlns="http://www.w3.org/2000/svg">
    <path d="M11 6C9.35494 6 8 7.35494 8 9V29C8 30.6451 9.35494 32 11 32H20V30H11C10.4371 30 10 29.5629 10 29V24H14V22H10V16H14V14H10V9C10 8.43706 10.4371 8 11 8H29C29.5629 8 30 8.43706 30 9V14H16V16H30V20.25H32V9C32 7.35494 30.6451 6 29 6H11ZM16 22V24H20V22H16ZM28 22V24.1016H27.9961C27.3614 24.2323 26.7734 24.4881 26.25 24.8359L24.707 23.293L23.293 24.707L24.8359 26.25C24.4881 26.7734 24.2323 27.3653 24.1016 28H22V30H24.1016V30.0039C24.2323 30.6386 24.4881 31.2266 24.8359 31.75L23.293 33.293L24.707 34.707L26.25 33.1641C26.7734 33.5119 27.3653 33.7677 28 33.8984V36H30V33.8984H30.0039C30.6174 33.772 31.185 33.5253 31.6953 33.1953L33.2578 34.9219L34.7422 33.5781L33.1328 31.8047C33.4989 31.2685 33.7633 30.6559 33.8984 30H36V28H33.8984V27.9961C33.7684 27.365 33.5167 26.779 33.1719 26.2578L34.6992 24.7539L33.3008 23.3281L31.7617 24.8398C31.2359 24.4885 30.6388 24.2332 30 24.1016V22H28ZM29 26C30.6687 26 32 27.3313 32 29C32 30.6687 30.6687 32 29 32C27.3313 32 26 30.6687 26 29C26 27.3313 27.3313 26 29 26Z"/>
</svg>
