<svg width="40" height="40" viewBox="0 0 40 40" fill="#D15C22" xmlns="http://www.w3.org/2000/svg">
    <path fill-rule="evenodd" d="M26.5 10C24.6842 10 23.0739 10.88 22.0723 12.2367C25.5946 14.0704 28 17.7543 28 22C28 28.0751 23.0751 33 17 33C10.9249 33 6 28.0751 6 22C6 15.9249 10.9249 11 17 11C18.1044 11 19.1708 11.1627 20.1765 11.4656C21.5088 9.3816 23.8431 8 26.5 8C30.6422 8 34 11.3579 34 15.5C34 19.14 31.4069 22.1744 27.9672 22.8566C27.9889 22.5739 28 22.2882 28 22C28 21.5981 27.9785 21.2013 27.9365 20.8105C30.2774 20.1789 32 18.0406 32 15.5C32 12.4624 29.5376 10 26.5 10ZM8 22C8 17.0294 12.0294 13 17 13C21.9706 13 26 17.0294 26 22C26 26.9706 21.9706 31 17 31C12.0294 31 8 26.9706 8 22Z"/>
</svg>
